<svg width="20" height="20" viewBox="0 0 20 20" fill="none" xmlns="http://www.w3.org/2000/svg">
<path d="M16.9257 10.3125L16.9257 17.8125C16.9257 18.1577 16.6459 18.4375 16.3007 18.4375H2.55066C2.20548 18.4375 1.92566 18.1577 1.92566 17.8125V10.3125" stroke="#0091FF" stroke-width="1.25" stroke-linecap="round" stroke-linejoin="round"/>
<path d="M6.85632 18.4375V14.0625C6.85632 13.7173 7.13615 13.4375 7.48132 13.4375H11.2313C11.5765 13.4375 11.8563 13.7173 11.8563 14.0625V18.4375" stroke="#0091FF" stroke-width="1.25" stroke-linecap="round" stroke-linejoin="round"/>
<path d="M5.05066 7.8125C5.25899 8.85417 5.67566 10.3125 7.55066 10.3125C9.1318 10.3125 9.42566 8.4375 9.42566 7.8125C9.42566 8.64583 9.92566 10.3125 11.9257 10.3125C12.7624 10.3125 13.8007 9.3125 13.8007 7.8125" stroke="#0091FF" stroke-width="1.25" stroke-linecap="round" stroke-linejoin="round"/>
<path d="M5.05077 7.8125C5.05077 9.8125 3.80077 10.3125 3.17577 10.3125C0.606223 10.3125 1.30072 7.1875 1.30072 7.1875L3.17577 1.5625H9.73827" stroke="#0091FF" stroke-width="1.25" stroke-linecap="round" stroke-linejoin="round"/>
<path d="M13.7313 7.8125C13.7313 9.8125 14.9813 10.3125 15.6063 10.3125C18.1758 10.3125 17.4813 7.1875 17.4813 7.1875L15.6063 1.5625H9.98128" stroke="#0091FF" stroke-width="1.25" stroke-linecap="round" stroke-linejoin="round"/>
</svg>
