<svg width="55" height="51" viewBox="0 0 55 51" fill="none" xmlns="http://www.w3.org/2000/svg">
<path d="M9.5499 11.5757C14.6504 11.576 18.3479 16.4366 16.9867 21.3521L14.61 29.9314C13.9914 32.1657 15.6722 34.3751 17.9905 34.3753H45.5993C47.5363 34.3756 49.1068 35.9458 49.1068 37.8828C49.1067 39.8198 47.5362 41.3901 45.5993 41.3903H17.9905C11.0353 41.3901 5.99386 34.7625 7.84986 28.0595L10.2256 19.4792C10.3491 19.0326 10.0133 18.5909 9.5499 18.5907H3.50749C1.57029 18.5907 0 17.0204 0 15.0832C0 13.146 1.57029 11.5757 3.50749 11.5757H9.5499Z" fill="black"/>
<path d="M22.0966 46.6518C22.0966 48.7828 20.3692 50.5102 18.2383 50.5102C16.1073 50.5102 14.3799 48.7828 14.3799 46.6518C14.3799 44.5209 16.1073 42.7935 18.2383 42.7935C20.3692 42.7935 22.0966 44.5209 22.0966 46.6518Z" fill="black"/>
<path d="M44.5461 46.6518C44.5461 48.7828 42.8186 50.5102 40.6877 50.5102C38.5568 50.5102 36.8293 48.7828 36.8293 46.6518C36.8293 44.5209 38.5568 42.7935 40.6877 42.7935C42.8186 42.7935 44.5461 44.5209 44.5461 46.6518Z" fill="black"/>
<path d="M23.9598 2.63613C24.4415 0.759884 26.3527 -0.370607 28.2289 0.110975C30.1052 0.592719 31.2357 2.50384 30.7541 4.38011L24.0897 30.3367C23.6079 32.2129 21.6968 33.3434 19.8205 32.8618C17.9442 32.3801 16.8136 30.4681 17.2954 28.5917L23.9598 2.63613Z" fill="#0091FF"/>
<path d="M32.3622 5.44186C32.8439 3.56552 34.7559 2.43494 36.6323 2.91671C38.5082 3.39866 39.638 5.30973 39.1564 7.18584L33.2127 30.336C32.7309 32.2123 30.8198 33.3428 28.9435 32.8612C27.0673 32.3795 25.9367 30.4683 26.4184 28.5921L32.3622 5.44186Z" fill="#0091FF"/>
<path d="M40.4001 9.65133C40.8819 7.775 42.7939 6.64441 44.6703 7.12618C46.5463 7.60803 47.6769 9.51919 47.1954 11.3953L42.3316 30.3369C41.8498 32.213 39.9386 33.3436 38.0625 32.8621C36.1861 32.3803 35.0555 30.4683 35.5373 28.592L40.4001 9.65133Z" fill="#0091FF"/>
<path d="M47.9898 15.6142C48.4716 13.7379 50.3836 12.6073 52.2599 13.0891C54.136 13.5709 55.2666 15.482 54.7851 17.3582L51.4524 30.3365C50.9706 32.2127 49.0595 33.3432 47.1832 32.8617C45.307 32.3799 44.1765 30.4687 44.6581 28.5925L47.9898 15.6142Z" fill="#0091FF"/>
</svg>
